Coordinates
version=1
nRows=54
nColumns=12
inDegrees=yes

Units are S.I. units (second, meters, Newtons, ...)
Angles are in degrees

endheader
time	SC_y	SC_z	SC_x	AC_y	AC_z	AC_x	GH_y	GH_z	GH_yy	EL_x	PS_y
       0.0              -56.62          11.72          62.92          34.98         -7.753         -3.124          86.92          34.62         -55.88          12.84          72.64
  0.003469              -56.61          11.72          62.93          34.98         -7.753         -3.126          86.91          34.62          -55.9          12.86          72.65
  0.006939              -56.61          11.72          62.93          34.98         -7.754         -3.127          86.91          34.63         -55.92          12.87          72.66
   0.01041              -56.61          11.72          62.93          34.98         -7.754         -3.128           86.9          34.63         -55.93          12.89          72.67
   0.01388               -56.6          11.71          62.94          34.98         -7.754         -3.129          86.89          34.63         -55.95           12.9          72.69
   0.01735               -56.6          11.71          62.94          34.98         -7.755         -3.131          86.88          34.63         -55.98          12.92           72.7
   0.02082              -56.59          11.71          62.94          34.98         -7.755         -3.133          86.87          34.64          -56.0          12.94          72.71
   0.02429              -56.59          11.71          62.95          34.98         -7.756         -3.134          86.86          34.64         -56.02          12.96          72.73
   0.02775              -56.58          11.71          62.95          34.98         -7.756         -3.136          86.85          34.65         -56.05          12.98          72.74
   0.03122              -56.57           11.7          62.95          34.98         -7.757         -3.138          86.84          34.65         -56.08           13.0          72.76
   0.03469              -56.57           11.7          62.96          34.98         -7.757          -3.14          86.83          34.65         -56.11          13.03          72.78
   0.03816              -56.56           11.7          62.96          34.99         -7.758         -3.142          86.82          34.66         -56.14          13.05           72.8
   0.04163              -56.55           11.7          62.97          34.99         -7.759         -3.145          86.81          34.66         -56.18          13.08          72.82
    0.0451              -56.54          11.69          62.97          34.99          -7.76         -3.147          86.79          34.67         -56.22          13.11          72.84
   0.04857              -56.53          11.69          62.98          34.99          -7.76          -3.15          86.78          34.68         -56.26          13.14          72.87
   0.05204              -56.52          11.69          62.99          34.99         -7.761         -3.153          86.76          34.68          -56.3          13.18           72.9
   0.05551              -56.51          11.68          62.99          34.99         -7.762         -3.156          86.74          34.69         -56.35          13.22          72.92
   0.05898               -56.5          11.68           63.0          34.99         -7.763          -3.16          86.72           34.7         -56.41          13.26          72.96
   0.06245              -56.49          11.67          63.01           35.0         -7.764         -3.164           86.7          34.71         -56.46          13.31          72.99
   0.06592              -56.47          11.67          63.02           35.0         -7.766         -3.168          86.67          34.72         -56.53          13.36          73.03
   0.06939              -56.46          11.66          63.03           35.0         -7.767         -3.173          86.65          34.73          -56.6          13.41          73.07
   0.07286              -56.44          11.66          63.04           35.0         -7.768         -3.178          86.62          34.74         -56.67          13.47          73.12
   0.07633              -56.42          11.65          63.05          35.01          -7.77         -3.184          86.59          34.75         -56.76          13.54          73.17
   0.07979               -56.4          11.64          63.07          35.01         -7.772          -3.19          86.55          34.76         -56.85          13.61          73.22
   0.08326              -56.38          11.63          63.08          35.01         -7.774         -3.197          86.51          34.78         -56.96           13.7          73.29
   0.08673              -56.35          11.62           63.1          35.02         -7.776         -3.205          86.47           34.8         -57.08          13.79          73.36
    0.0902              -56.32          11.61          63.12          35.02         -7.779         -3.214          86.42          34.82         -57.21          13.89          73.43
   0.09367              -56.29           11.6          63.14          35.03         -7.782         -3.224          86.36          34.84         -57.35          14.01          73.52
   0.09714              -56.25          11.59          63.17          35.03         -7.785         -3.235           86.3          34.86         -57.52          14.14          73.62
    0.1006              -56.21          11.57          63.19          35.04         -7.788         -3.248          86.23          34.89         -57.71          14.29          73.74
    0.1041              -56.16          11.55          63.23          35.04         -7.793         -3.262          86.15          34.92         -57.92          14.46          73.86
    0.1075              -56.11          11.53          63.26          35.05         -7.797         -3.279          86.05          34.96         -58.17          14.66          74.01
     0.111              -56.05          11.51           63.3          35.06         -7.803         -3.298          85.95           35.0         -58.46          14.88          74.18
    0.1145              -55.97          11.48          63.35          35.07         -7.809         -3.321          85.82          35.05         -58.79          15.15          74.38
     0.118              -55.89          11.45          63.41          35.09         -7.817         -3.347          85.68          35.11         -59.18          15.45          74.61
    0.1214              -55.79          11.41          63.48           35.1         -7.826         -3.378           85.5          35.17         -59.64          15.82          74.89
    0.1249              -55.66          11.37          63.56          35.12         -7.836         -3.415           85.3          35.26         -60.18          16.25          75.21
    0.1284              -55.52          11.32          63.65          35.14         -7.849         -3.459          85.05          35.35         -60.83          16.76           75.6
    0.1318              -55.34          11.25          63.77          35.17         -7.864         -3.512          84.75          35.47         -61.62          17.39          76.07
    0.1353              -55.13          11.17          63.91           35.2         -7.883         -3.577          84.39          35.61         -62.58          18.15          76.65
    0.1388              -54.87          11.08          64.09          35.24         -7.906         -3.657          83.94          35.79         -63.77          19.09          77.36
    0.1422              -54.54          10.96           64.3          35.29         -7.934         -3.757          83.38          36.01         -65.26          20.27          78.25
    0.1457              -54.12           10.8          64.58          35.35          -7.97         -3.884          82.68          36.28         -67.13          21.75          79.37
    0.1492               -53.6          10.61          64.93          35.43         -8.016         -4.044          81.78          36.63          -69.5          23.63          80.79
    0.1527              -52.92          10.36          65.38          35.53         -8.075         -4.249          80.64          37.08         -72.54          26.04           82.6
    0.1561              -52.06          10.04          65.95          35.66         -8.151         -4.513          79.17          37.66         -76.45          29.13          84.94
    0.1596              -50.95          9.636          66.68          35.83         -8.247         -4.849          77.29           38.4         -81.43          33.07          87.92
    0.1631              -49.56          9.125          67.61          36.04         -8.368         -5.272          74.93          39.32          -87.7          38.04          91.66
    0.1665              -47.87          8.502          68.73          36.29         -8.516         -5.787          72.05          40.45         -95.33          44.08          96.23
      0.17               -45.9           7.78          70.03          36.58         -8.687         -6.385          68.71          41.76         -104.2          51.09          101.5
    0.1735              -43.78          6.998          71.44           36.9         -8.872         -7.032           65.1          43.18         -113.8          58.68          107.3
    0.1769              -41.65          6.216          72.85          37.22         -9.057         -7.679          61.48          44.59         -123.4          66.27          113.0
    0.1804              -39.69          5.493          74.16          37.52         -9.228         -8.277          58.15           45.9         -132.2          73.28          118.3
    0.1839               -38.0           4.87          75.28          37.77         -9.376         -8.792          55.27          47.03         -139.9          79.33          122.8
